<svg xmlns="http://www.w3.org/2000/svg" viewBox="0 0 800 1000" role="img" aria-label="Tranh canvas Abstract Line">
  <defs>
    <linearGradient id="bg" x1="0" y1="0" x2="0" y2="1">
      <stop offset="0%" stop-color="#f8f5f0"/>
      <stop offset="100%" stop-color="#e1d5c7"/>
    </linearGradient>
    <filter id="shadow" x="-20%" y="-20%" width="140%" height="140%">
      <feDropShadow dx="0" dy="18" stdDeviation="16" flood-color="#7c5e3e" flood-opacity="0.16"/>
    </filter>
  </defs>
  <rect width="800" height="1000" fill="url(#bg)"/>
  <g filter="url(#shadow)">
    <rect x="160" y="190" width="480" height="620" rx="18" fill="#f6f1e9" stroke="#bfa889" stroke-width="18"/>
    <rect x="192" y="222" width="416" height="556" rx="10" fill="#fefdf9"/>
    <circle cx="332" cy="386" r="74" fill="#d7c1a4"/>
    <circle cx="328" cy="384" r="38" fill="#f0e1cf" opacity="0.55"/>
    <path d="M258 488c68-90 146-118 252-84" fill="none" stroke="#3b332b" stroke-width="10" stroke-linecap="round"/>
    <path d="M286 560c78-34 136-20 184 40" fill="none" stroke="#7a5c46" stroke-width="10" stroke-linecap="round"/>
    <path d="M482 298c28 54 18 120-22 182" fill="none" stroke="#d19c62" stroke-width="16" stroke-linecap="round"/>
    <path d="M498 296c18 36 28 78 28 126" fill="none" stroke="#c6b098" stroke-width="8" stroke-linecap="round"/>
    <path d="M520 246h68v536h-68" fill="none" stroke="#e1d6c8" stroke-width="6"/>
  </g>
</svg>
