<svg xmlns="http://www.w3.org/2000/svg" viewBox="0 0 800 1000" role="img" aria-label="Tủ rượu Dining Bar">
  <defs>
    <linearGradient id="bg" x1="0" y1="0" x2="1" y2="1">
      <stop offset="0%" stop-color="#f5efe5"/>
      <stop offset="100%" stop-color="#d7cab8"/>
    </linearGradient>
    <linearGradient id="wood" x1="0" y1="0" x2="1" y2="1">
      <stop offset="0%" stop-color="#c89b61"/>
      <stop offset="100%" stop-color="#7c5730"/>
    </linearGradient>
    <linearGradient id="top" x1="0" y1="0" x2="0" y2="1">
      <stop offset="0%" stop-color="#3a352f"/>
      <stop offset="100%" stop-color="#171514"/>
    </linearGradient>
    <filter id="shadow" x="-20%" y="-20%" width="140%" height="140%">
      <feDropShadow dx="0" dy="16" stdDeviation="14" flood-color="#4f3921" flood-opacity="0.18"/>
    </filter>
  </defs>
  <rect width="800" height="1000" fill="url(#bg)"/>
  <g filter="url(#shadow)">
    <rect x="176" y="420" width="448" height="220" rx="22" fill="url(#wood)"/>
    <rect x="160" y="382" width="480" height="56" rx="18" fill="url(#top)"/>
    <rect x="202" y="452" width="122" height="124" rx="12" fill="#d7c29d" opacity="0.36"/>
    <rect x="326" y="452" width="122" height="124" rx="12" fill="#d7c29d" opacity="0.2"/>
    <rect x="450" y="452" width="122" height="124" rx="12" fill="#d7c29d" opacity="0.32"/>
    <path d="M230 580h96v40h-96z" fill="#4b3928" opacity="0.52"/>
    <path d="M354 548h92v72h-92z" fill="#4b3928" opacity="0.4"/>
    <path d="M488 548h58v72h-58z" fill="#4b3928" opacity="0.42"/>
    <rect x="520" y="320" width="20" height="64" rx="10" fill="#c7b59d"/>
    <rect x="360" y="342" width="86" height="70" rx="14" fill="#e9e1d6"/>
    <circle cx="400" cy="374" r="12" fill="#5a4938"/>
    <path d="M402 318l-8-40h16z" fill="#b97f3f"/>
    <rect x="258" y="330" width="18" height="74" rx="9" fill="#cfd6d9"/>
    <rect x="540" y="330" width="18" height="74" rx="9" fill="#cfd6d9"/>
    <circle cx="348" cy="332" r="14" fill="#5a4938"/>
    <circle cx="452" cy="332" r="14" fill="#5a4938"/>
  </g>
</svg>
