<svg xmlns="http://www.w3.org/2000/svg" viewBox="0 0 800 1000" role="img" aria-label="Bình hoa ceramic">
  <defs>
    <linearGradient id="bg" x1="0" y1="0" x2="1" y2="1">
      <stop offset="0%" stop-color="#faf7f2"/>
      <stop offset="100%" stop-color="#e4dbd0"/>
    </linearGradient>
    <linearGradient id="base" x1="0" y1="0" x2="0" y2="1">
      <stop offset="0%" stop-color="#f4efe7"/>
      <stop offset="100%" stop-color="#cfc3b6"/>
    </linearGradient>
    <filter id="shadow" x="-20%" y="-20%" width="140%" height="140%">
      <feDropShadow dx="0" dy="18" stdDeviation="16" flood-color="#7a5a3c" flood-opacity="0.16"/>
    </filter>
  </defs>
  <rect width="800" height="1000" fill="url(#bg)"/>
  <g filter="url(#shadow)">
    <rect x="170" y="750" width="460" height="28" rx="14" fill="#ccb8a0"/>
    <path d="M392 252c26 0 40 28 40 72 0 36-6 68-12 98-8 40 10 60 20 92 12 36 14 76 14 112 0 70-28 136-62 136s-62-66-62-136c0-36 2-76 14-112 10-32 28-52 20-92-6-30-12-62-12-98 0-44 14-72 40-72z" fill="url(#base)"/>
    <path d="M358 304h84" stroke="#a89886" stroke-width="14" stroke-linecap="round"/>
    <circle cx="352" cy="450" r="18" fill="#d9cfc4"/>
    <circle cx="446" cy="454" r="18" fill="#d9cfc4"/>
    <circle cx="334" cy="404" r="18" fill="#e5ded4"/>
    <circle cx="470" cy="406" r="18" fill="#e5ded4"/>
    <path d="M352 450c-18 42-16 72 10 110" fill="none" stroke="#a89886" stroke-width="8" stroke-linecap="round"/>
    <path d="M446 454c18 38 18 72-8 110" fill="none" stroke="#a89886" stroke-width="8" stroke-linecap="round"/>
  </g>
</svg>
