<svg xmlns="http://www.w3.org/2000/svg" viewBox="0 0 800 1000" role="img" aria-label="Gương treo Wall Glow">
  <defs>
    <linearGradient id="bg" x1="0" y1="0" x2="0" y2="1">
      <stop offset="0%" stop-color="#f8f5ef"/>
      <stop offset="100%" stop-color="#ddd2c7"/>
    </linearGradient>
    <radialGradient id="halo" cx="50%" cy="32%" r="36%">
      <stop offset="0%" stop-color="#fff5cc"/>
      <stop offset="55%" stop-color="#ffd57a" stop-opacity="0.8"/>
      <stop offset="100%" stop-color="#ffd57a" stop-opacity="0"/>
    </radialGradient>
    <linearGradient id="mirror" x1="0" y1="0" x2="1" y2="1">
      <stop offset="0%" stop-color="#fefefe"/>
      <stop offset="100%" stop-color="#e9e1d5"/>
    </linearGradient>
    <filter id="shadow" x="-20%" y="-20%" width="140%" height="140%">
      <feDropShadow dx="0" dy="18" stdDeviation="16" flood-color="#4a3928" flood-opacity="0.2"/>
    </filter>
  </defs>
  <rect width="800" height="1000" fill="url(#bg)"/>
  <rect width="800" height="1000" fill="url(#halo)"/>
  <g filter="url(#shadow)">
    <path d="M250 250h300c22 0 40 18 40 40v220c0 22-18 40-40 40H250c-22 0-40-18-40-40V290c0-22 18-40 40-40z" fill="#6d5639"/>
    <path d="M266 272h268c18 0 32 14 32 32v176c0 18-14 32-32 32H266c-18 0-32-14-32-32V304c0-18 14-32 32-32z" fill="url(#mirror)" stroke="#cdbfae" stroke-width="8"/>
    <rect x="328" y="550" width="144" height="26" rx="10" fill="#6d5639"/>
    <rect x="188" y="702" width="424" height="82" rx="18" fill="#2d241e"/>
    <rect x="168" y="720" width="472" height="22" rx="11" fill="#44362d"/>
    <rect x="620" y="410" width="48" height="152" rx="20" fill="#5c452b"/>
    <circle cx="644" cy="452" r="20" fill="#f3d98f"/>
    <circle cx="644" cy="452" r="10" fill="#fff7da"/>
    <path d="M620 510c20 0 34 16 34 36h-56c0-20 12-36 22-36z" fill="#56724e"/>
    <path d="M602 540c12-18 28-24 45-18-12 6-23 16-29 32-6-8-10-13-16-14z" fill="#7b9d68"/>
  </g>
</svg>
