<svg xmlns="http://www.w3.org/2000/svg" viewBox="0 0 800 1000" role="img" aria-label="Gương treo Aura">
  <defs>
    <linearGradient id="bg" x1="0" y1="0" x2="1" y2="1">
      <stop offset="0%" stop-color="#f7efe2"/>
      <stop offset="55%" stop-color="#efe0cf"/>
      <stop offset="100%" stop-color="#dcc7ad"/>
    </linearGradient>
    <radialGradient id="glow" cx="50%" cy="26%" r="42%">
      <stop offset="0%" stop-color="#fff9e8" stop-opacity="1"/>
      <stop offset="55%" stop-color="#f6d9a2" stop-opacity="0.85"/>
      <stop offset="100%" stop-color="#f2c46b" stop-opacity="0"/>
    </radialGradient>
    <linearGradient id="frame" x1="0" y1="0" x2="0" y2="1">
      <stop offset="0%" stop-color="#d7b06a"/>
      <stop offset="100%" stop-color="#8f6a2a"/>
    </linearGradient>
    <filter id="shadow" x="-20%" y="-20%" width="140%" height="140%">
      <feDropShadow dx="0" dy="22" stdDeviation="18" flood-color="#5d4526" flood-opacity="0.22"/>
    </filter>
  </defs>
  <rect width="800" height="1000" fill="url(#bg)"/>
  <rect width="800" height="1000" fill="url(#glow)"/>
  <g filter="url(#shadow)">
    <circle cx="400" cy="355" r="160" fill="#f7f1e8" opacity="0.25"/>
    <rect x="170" y="250" width="460" height="400" rx="26" fill="url(#frame)"/>
    <rect x="198" y="278" width="404" height="344" rx="18" fill="#f9f2e7" stroke="#d9c39d" stroke-width="10"/>
    <rect x="258" y="610" width="284" height="64" rx="18" fill="#8f6a2a"/>
    <rect x="190" y="670" width="420" height="34" rx="17" fill="#5c4426"/>
    <rect x="122" y="720" width="556" height="128" rx="18" fill="#2f251c"/>
    <rect x="160" y="750" width="136" height="80" rx="8" fill="#2b2017"/>
    <g opacity="0.6">
      <rect x="236" y="756" width="18" height="58" rx="9" fill="#7b6b59"/>
      <rect x="260" y="756" width="18" height="58" rx="9" fill="#7b6b59"/>
      <rect x="284" y="756" width="18" height="58" rx="9" fill="#7b6b59"/>
      <rect x="308" y="756" width="18" height="58" rx="9" fill="#7b6b59"/>
    </g>
    <circle cx="560" cy="776" r="26" fill="#dbd2c6"/>
    <rect x="544" y="748" width="9" height="28" rx="4" fill="#7b6b59"/>
    <rect x="557" y="742" width="9" height="34" rx="4" fill="#7b6b59"/>
    <path d="M615 760c34 0 52 24 52 52h-82c0-28 18-52 30-52z" fill="#4f6d4d"/>
    <path d="M590 792c20-30 49-37 77-26-21 11-38 27-49 54-10-14-17-23-28-28z" fill="#6f8f5b"/>
  </g>
</svg>
