<svg xmlns="http://www.w3.org/2000/svg" viewBox="0 0 800 1000" role="img" aria-label="Đèn trần Ring">
  <defs>
    <linearGradient id="bg" x1="0" y1="0" x2="1" y2="1">
      <stop offset="0%" stop-color="#f8f2e7"/>
      <stop offset="100%" stop-color="#d9cbb9"/>
    </linearGradient>
    <radialGradient id="glow" cx="50%" cy="24%" r="30%">
      <stop offset="0%" stop-color="#fff7d8" stop-opacity="1"/>
      <stop offset="60%" stop-color="#ffd97d" stop-opacity="0.85"/>
      <stop offset="100%" stop-color="#ffd97d" stop-opacity="0"/>
    </radialGradient>
    <linearGradient id="ring" x1="0" y1="0" x2="1" y2="1">
      <stop offset="0%" stop-color="#fff8df"/>
      <stop offset="100%" stop-color="#d8b76a"/>
    </linearGradient>
    <filter id="shadow" x="-20%" y="-20%" width="140%" height="140%">
      <feDropShadow dx="0" dy="16" stdDeviation="14" flood-color="#5d4526" flood-opacity="0.18"/>
    </filter>
  </defs>
  <rect width="800" height="1000" fill="url(#bg)"/>
  <rect width="800" height="1000" fill="url(#glow)"/>
  <g filter="url(#shadow)">
    <rect x="388" y="110" width="24" height="132" rx="12" fill="#7a6242"/>
    <rect x="392" y="230" width="16" height="54" rx="8" fill="#9f8b68"/>
    <circle cx="400" cy="370" r="170" fill="none" stroke="url(#ring)" stroke-width="30"/>
    <circle cx="400" cy="370" r="122" fill="none" stroke="#f6e7bc" stroke-width="10" opacity="0.9"/>
    <circle cx="400" cy="370" r="210" fill="none" stroke="#f1d58d" stroke-width="2" opacity="0.22"/>
    <rect x="188" y="664" width="424" height="76" rx="18" fill="#2d241d"/>
    <rect x="220" y="694" width="360" height="14" rx="7" fill="#514133"/>
    <path d="M580 700c18-22 42-28 68-18-18 10-31 23-40 42-12-12-18-18-28-24z" fill="#7f9366"/>
  </g>
</svg>
