<svg xmlns="http://www.w3.org/2000/svg" viewBox="0 0 800 1000" role="img" aria-label="Xe đẩy phục vụ Luxe">
  <defs>
    <linearGradient id="bg" x1="0" y1="0" x2="1" y2="1">
      <stop offset="0%" stop-color="#f6f0e5"/>
      <stop offset="100%" stop-color="#dbc8b2"/>
    </linearGradient>
    <linearGradient id="metal" x1="0" y1="0" x2="1" y2="1">
      <stop offset="0%" stop-color="#f3db95"/>
      <stop offset="100%" stop-color="#a17528"/>
    </linearGradient>
    <filter id="shadow" x="-20%" y="-20%" width="140%" height="140%">
      <feDropShadow dx="0" dy="16" stdDeviation="14" flood-color="#4f3921" flood-opacity="0.18"/>
    </filter>
  </defs>
  <rect width="800" height="1000" fill="url(#bg)"/>
  <g filter="url(#shadow)">
    <rect x="250" y="350" width="300" height="28" rx="14" fill="#b08a44"/>
    <rect x="240" y="390" width="320" height="18" rx="9" fill="#8d6a2b"/>
    <rect x="230" y="640" width="340" height="20" rx="10" fill="#8d6a2b"/>
    <rect x="248" y="412" width="304" height="164" rx="16" fill="#eadfbf" stroke="#b99144" stroke-width="12"/>
    <rect x="282" y="430" width="130" height="38" rx="10" fill="#cbb37b"/>
    <rect x="430" y="430" width="92" height="38" rx="10" fill="#cbb37b"/>
    <rect x="316" y="486" width="192" height="50" rx="18" fill="#8e6a2c"/>
    <rect x="274" y="700" width="14" height="92" rx="7" fill="url(#metal)"/>
    <rect x="508" y="700" width="14" height="92" rx="7" fill="url(#metal)"/>
    <circle cx="270" cy="804" r="24" fill="#cba64f"/>
    <circle cx="522" cy="804" r="24" fill="#cba64f"/>
    <circle cx="270" cy="804" r="10" fill="#6e5320"/>
    <circle cx="522" cy="804" r="10" fill="#6e5320"/>
    <path d="M262 330h56" stroke="#8d6a2b" stroke-width="18" stroke-linecap="round"/>
    <path d="M482 330h56" stroke="#8d6a2b" stroke-width="18" stroke-linecap="round"/>
    <rect x="352" y="454" width="14" height="50" rx="7" fill="#dce4e9"/>
    <rect x="372" y="454" width="14" height="50" rx="7" fill="#dce4e9"/>
    <rect x="392" y="454" width="14" height="50" rx="7" fill="#dce4e9"/>
  </g>
</svg>
