<svg xmlns="http://www.w3.org/2000/svg" viewBox="0 0 800 1000" role="img" aria-label="Đèn bàn Aurora">
  <defs>
    <linearGradient id="bg" x1="0" y1="0" x2="1" y2="1">
      <stop offset="0%" stop-color="#f5efe3"/>
      <stop offset="100%" stop-color="#d8c3a8"/>
    </linearGradient>
    <radialGradient id="glow" cx="45%" cy="24%" r="34%">
      <stop offset="0%" stop-color="#fff8d8" stop-opacity="1"/>
      <stop offset="60%" stop-color="#ffcf70" stop-opacity="0.9"/>
      <stop offset="100%" stop-color="#ffcf70" stop-opacity="0"/>
    </radialGradient>
    <linearGradient id="shade" x1="0" y1="0" x2="0" y2="1">
      <stop offset="0%" stop-color="#c8b39b"/>
      <stop offset="100%" stop-color="#9f8467"/>
    </linearGradient>
    <filter id="shadow" x="-20%" y="-20%" width="140%" height="140%">
      <feDropShadow dx="0" dy="16" stdDeviation="14" flood-color="#4f3921" flood-opacity="0.18"/>
    </filter>
  </defs>
  <rect width="800" height="1000" fill="url(#bg)"/>
  <rect width="800" height="1000" fill="url(#glow)"/>
  <g filter="url(#shadow)">
    <rect x="210" y="720" width="380" height="82" rx="18" fill="#27231f"/>
    <rect x="318" y="660" width="164" height="48" rx="20" fill="#5d452f"/>
    <rect x="350" y="556" width="100" height="124" rx="18" fill="#89684b"/>
    <rect x="358" y="314" width="84" height="252" rx="42" fill="url(#shade)" stroke="#5f4934" stroke-width="8"/>
    <rect x="372" y="250" width="56" height="64" rx="20" fill="#d8b76c"/>
    <rect x="388" y="218" width="24" height="40" rx="12" fill="#9e7b44"/>
    <circle cx="400" cy="396" r="38" fill="#ffefb6" opacity="0.5"/>
    <path d="M290 676c32-10 56-10 92 0" stroke="#6e5b45" stroke-width="8" stroke-linecap="round"/>
    <path d="M510 676c-32-10-56-10-92 0" stroke="#6e5b45" stroke-width="8" stroke-linecap="round"/>
  </g>
</svg>
