<svg xmlns="http://www.w3.org/2000/svg" viewBox="0 0 800 1000" role="img" aria-label="Ghế ăn bọc nệm">
  <defs>
    <linearGradient id="bg" x1="0" y1="0" x2="1" y2="1">
      <stop offset="0%" stop-color="#f7f3ea"/>
      <stop offset="100%" stop-color="#dfd0bf"/>
    </linearGradient>
    <linearGradient id="seat" x1="0" y1="0" x2="1" y2="1">
      <stop offset="0%" stop-color="#d6a97f"/>
      <stop offset="100%" stop-color="#b27b4d"/>
    </linearGradient>
    <filter id="shadow" x="-20%" y="-20%" width="140%" height="140%">
      <feDropShadow dx="0" dy="16" stdDeviation="14" flood-color="#5c4426" flood-opacity="0.18"/>
    </filter>
  </defs>
  <rect width="800" height="1000" fill="url(#bg)"/>
  <g filter="url(#shadow)">
    <rect x="240" y="300" width="320" height="360" rx="40" fill="#252321"/>
    <rect x="258" y="324" width="284" height="182" rx="32" fill="#a86e44"/>
    <rect x="286" y="350" width="228" height="132" rx="24" fill="url(#seat)"/>
    <rect x="286" y="530" width="228" height="54" rx="16" fill="#d9b28f"/>
    <rect x="264" y="604" width="18" height="180" rx="9" fill="#2b2a28"/>
    <rect x="518" y="604" width="18" height="180" rx="9" fill="#2b2a28"/>
    <rect x="320" y="604" width="18" height="180" rx="9" fill="#2b2a28"/>
    <rect x="466" y="604" width="18" height="180" rx="9" fill="#2b2a28"/>
    <path d="M255 766h288" stroke="#2b2a28" stroke-width="18" stroke-linecap="round"/>
    <path d="M260 640c26-10 48-10 74 0" stroke="#8d6342" stroke-width="8" stroke-linecap="round"/>
  </g>
</svg>
