<svg xmlns="http://www.w3.org/2000/svg" viewBox="0 0 800 1000" role="img" aria-label="Bình hoa Serenity">
  <defs>
    <linearGradient id="bg" x1="0" y1="0" x2="1" y2="1">
      <stop offset="0%" stop-color="#f7f2ea"/>
      <stop offset="100%" stop-color="#e8ddd2"/>
    </linearGradient>
    <linearGradient id="table" x1="0" y1="0" x2="1" y2="0">
      <stop offset="0%" stop-color="#efe6da"/>
      <stop offset="100%" stop-color="#cbb79f"/>
    </linearGradient>
    <linearGradient id="vase" x1="0" y1="0" x2="0" y2="1">
      <stop offset="0%" stop-color="#f4efe7"/>
      <stop offset="100%" stop-color="#d1c4b3"/>
    </linearGradient>
    <filter id="shadow" x="-20%" y="-20%" width="140%" height="140%">
      <feDropShadow dx="0" dy="18" stdDeviation="16" flood-color="#7a5a3c" flood-opacity="0.18"/>
    </filter>
  </defs>
  <rect width="800" height="1000" fill="url(#bg)"/>
  <rect x="0" y="710" width="800" height="290" fill="url(#table)"/>
  <g filter="url(#shadow)">
    <rect x="268" y="664" width="264" height="26" rx="13" fill="#bba38a"/>
    <path d="M360 352c0-40 16-66 40-66s40 26 40 66c0 28-12 58-16 82-4 26 6 42 18 64 14 26 20 58 20 92 0 70-32 124-62 124s-62-54-62-124c0-34 6-66 20-92 12-22 22-38 18-64-4-24-16-54-16-82z" fill="url(#vase)"/>
    <path d="M352 386h96c0 0-16 22-48 22s-48-22-48-22z" fill="#c5b6a4"/>
    <path d="M380 300c18 10 22 34 18 72" fill="none" stroke="#9ea17a" stroke-width="10" stroke-linecap="round"/>
    <path d="M400 290c-6 12-8 24-4 40" fill="none" stroke="#7f9b63" stroke-width="8" stroke-linecap="round"/>
    <path d="M414 304c24 6 44 24 58 52" fill="none" stroke="#6f8d59" stroke-width="8" stroke-linecap="round"/>
    <path d="M366 308c-26 12-50 34-64 62" fill="none" stroke="#839b66" stroke-width="8" stroke-linecap="round"/>
    <circle cx="366" cy="280" r="22" fill="#f1b7b0"/>
    <circle cx="404" cy="268" r="20" fill="#f4d49b"/>
    <circle cx="438" cy="286" r="18" fill="#e6d9a5"/>
    <circle cx="458" cy="324" r="20" fill="#cdbf87"/>
    <circle cx="338" cy="338" r="18" fill="#f0d2c2"/>
    <circle cx="430" cy="342" r="18" fill="#f1c7b0"/>
    <path d="M366 280l-12-18" stroke="#6f8d59" stroke-width="6" stroke-linecap="round"/>
    <path d="M404 268l-8-18" stroke="#6f8d59" stroke-width="6" stroke-linecap="round"/>
    <path d="M438 286l10-18" stroke="#6f8d59" stroke-width="6" stroke-linecap="round"/>
    <path d="M458 324l16-8" stroke="#6f8d59" stroke-width="6" stroke-linecap="round"/>
    <path d="M338 338l-14-10" stroke="#6f8d59" stroke-width="6" stroke-linecap="round"/>
    <path d="M430 342l14-10" stroke="#6f8d59" stroke-width="6" stroke-linecap="round"/>
  </g>
</svg>
