<svg xmlns="http://www.w3.org/2000/svg" viewBox="0 0 800 1000" role="img" aria-label="Đồng hồ treo Timepiece">
  <defs>
    <linearGradient id="bg" x1="0" y1="0" x2="1" y2="1">
      <stop offset="0%" stop-color="#f7f3ec"/>
      <stop offset="100%" stop-color="#ddd1c3"/>
    </linearGradient>
    <filter id="shadow" x="-20%" y="-20%" width="140%" height="140%">
      <feDropShadow dx="0" dy="16" stdDeviation="14" flood-color="#6e5236" flood-opacity="0.18"/>
    </filter>
  </defs>
  <rect width="800" height="1000" fill="url(#bg)"/>
  <g filter="url(#shadow)">
    <rect x="160" y="252" width="480" height="420" rx="24" fill="#f4ede4" stroke="#cab7a0" stroke-width="14"/>
    <circle cx="400" cy="410" r="150" fill="#fffdf9" stroke="#6d5b4a" stroke-width="18"/>
    <circle cx="400" cy="410" r="130" fill="none" stroke="#eadac7" stroke-width="8"/>
    <circle cx="400" cy="410" r="10" fill="#4f4031"/>
    <path d="M400 410l-4-78" stroke="#4f4031" stroke-width="10" stroke-linecap="round"/>
    <path d="M400 410l70 32" stroke="#4f4031" stroke-width="10" stroke-linecap="round"/>
    <circle cx="400" cy="410" r="8" fill="#4f4031"/>
    <path d="M400 258v-32M400 594v32M248 410h-32M584 410h32" stroke="#7d6a58" stroke-width="8" stroke-linecap="round"/>
    <path d="M290 300l-20-20M510 300l20-20M290 520l-20 20M510 520l20 20" stroke="#b6a28b" stroke-width="8" stroke-linecap="round"/>
    <rect x="240" y="704" width="320" height="90" rx="18" fill="#2f251d"/>
    <rect x="280" y="726" width="240" height="18" rx="9" fill="#594839"/>
    <rect x="530" y="720" width="38" height="64" rx="8" fill="#d3c0aa"/>
  </g>
</svg>
