<svg xmlns="http://www.w3.org/2000/svg" viewBox="0 0 800 1000" role="img" aria-label="Ghế ăn Scandinavian Pine">
  <defs>
    <linearGradient id="bg" x1="0" y1="0" x2="1" y2="1">
      <stop offset="0%" stop-color="#f8f4ea"/>
      <stop offset="100%" stop-color="#e2d2bf"/>
    </linearGradient>
    <linearGradient id="wood" x1="0" y1="0" x2="1" y2="1">
      <stop offset="0%" stop-color="#dfbf8b"/>
      <stop offset="100%" stop-color="#a46e36"/>
    </linearGradient>
    <filter id="shadow" x="-20%" y="-20%" width="140%" height="140%">
      <feDropShadow dx="0" dy="16" stdDeviation="14" flood-color="#5c4426" flood-opacity="0.18"/>
    </filter>
  </defs>
  <rect width="800" height="1000" fill="url(#bg)"/>
  <g filter="url(#shadow)">
    <rect x="270" y="318" width="260" height="330" rx="36" fill="#2a251f"/>
    <rect x="292" y="340" width="216" height="126" rx="24" fill="#ecd9b4"/>
    <rect x="304" y="344" width="192" height="116" rx="18" fill="url(#wood)"/>
    <rect x="290" y="520" width="220" height="50" rx="16" fill="#d2ae75"/>
    <rect x="280" y="600" width="16" height="180" rx="8" fill="#2a251f"/>
    <rect x="504" y="600" width="16" height="180" rx="8" fill="#2a251f"/>
    <rect x="336" y="600" width="16" height="180" rx="8" fill="#2a251f"/>
    <rect x="448" y="600" width="16" height="180" rx="8" fill="#2a251f"/>
    <path d="M286 768h228" stroke="#2a251f" stroke-width="18" stroke-linecap="round"/>
    <path d="M300 390h200" stroke="#8d6338" stroke-width="10" stroke-linecap="round" opacity="0.8"/>
    <path d="M300 430h200" stroke="#8d6338" stroke-width="10" stroke-linecap="round" opacity="0.8"/>
  </g>
</svg>
